<svg xmlns="http://www.w3.org/2000/svg" version="1.1" xmlns:xlink="http://www.w3.org/1999/xlink" xmlns:svgjs="http://svgjs.dev/svgjs" viewBox="0 0 800 800" opacity="0.68" width="800" height="800"><g stroke-width="0.5" stroke="hsla(0, 0%, 71%, 0.62)" fill="none"><circle r="2.5" cx="0" cy="0" fill="hsla(0, 0%, 71%, 0.62)" stroke="none"></circle><circle r="2.5" cx="61.53846153846154" cy="0" fill="hsla(0, 0%, 71%, 0.62)" stroke="none"></circle><circle r="2.5" cx="123.07692307692308" cy="0" fill="hsla(0, 0%, 71%, 0.62)" stroke="none"></circle><circle r="2.5" cx="184.6153846153846" cy="0" fill="hsla(0, 0%, 71%, 0.62)" stroke="none"></circle><circle r="2.5" cx="246.15384615384616" cy="0" fill="hsla(0, 0%, 71%, 0.62)" stroke="none"></circle><circle r="2.5" cx="307.6923076923077" cy="0" fill="hsla(0, 0%, 71%, 0.62)" stroke="none"></circle><circle r="2.5" cx="369.2307692307692" cy="0" fill="hsla(0, 0%, 71%, 0.62)" stroke="none"></circle><circle r="2.5" cx="430.7692307692308" cy="0" fill="hsla(0, 0%, 71%, 0.62)" stroke="none"></circle><circle r="2.5" cx="492.3076923076923" cy="0" fill="hsla(0, 0%, 71%, 0.62)" stroke="none"></circle><circle r="2.5" cx="553.8461538461538" cy="0" fill="hsla(0, 0%, 71%, 0.62)" stroke="none"></circle><circle r="2.5" cx="615.3846153846154" cy="0" fill="hsla(0, 0%, 71%, 0.62)" stroke="none"></circle><circle r="2.5" cx="676.9230769230769" cy="0" fill="hsla(0, 0%, 71%, 0.62)" stroke="none"></circle><circle r="2.5" cx="738.4615384615385" cy="0" fill="hsla(0, 0%, 71%, 0.62)" stroke="none"></circle><circle r="2.5" cx="800" cy="0" fill="hsla(0, 0%, 71%, 0.62)" stroke="none"></circle><circle r="2.5" cx="0" cy="61.53846153846154" fill="hsla(0, 0%, 71%, 0.62)" stroke="none"></circle><circle r="2.5" cx="61.53846153846154" cy="61.53846153846154" fill="hsla(0, 0%, 71%, 0.62)" stroke="none"></circle><circle r="2.5" cx="123.07692307692308" cy="61.53846153846154" fill="hsla(0, 0%, 71%, 0.62)" stroke="none"></circle><circle r="2.5" cx="184.6153846153846" cy="61.53846153846154" fill="hsla(0, 0%, 71%, 0.62)" stroke="none"></circle><circle r="2.5" cx="246.15384615384616" cy="61.53846153846154" fill="none"></circle><circle r="2.5" cx="307.6923076923077" cy="61.53846153846154" fill="none"></circle><circle r="2.5" cx="369.2307692307692" cy="61.53846153846154" fill="hsla(0, 0%, 71%, 0.62)" stroke="none"></circle><circle r="2.5" cx="430.7692307692308" cy="61.53846153846154" fill="hsla(0, 0%, 71%, 0.62)" stroke="none"></circle><circle r="2.5" cx="492.3076923076923" cy="61.53846153846154" fill="hsla(0, 0%, 71%, 0.62)" stroke="none"></circle><circle r="2.5" cx="553.8461538461538" cy="61.53846153846154" fill="hsla(0, 0%, 71%, 0.62)" stroke="none"></circle><circle r="2.5" cx="615.3846153846154" cy="61.53846153846154" fill="hsla(0, 0%, 71%, 0.62)" stroke="none"></circle><circle r="2.5" cx="676.9230769230769" cy="61.53846153846154" fill="none"></circle><circle r="2.5" cx="738.4615384615385" cy="61.53846153846154" fill="hsla(0, 0%, 71%, 0.62)" stroke="none"></circle><circle r="2.5" cx="800" cy="61.53846153846154" fill="hsla(0, 0%, 71%, 0.62)" stroke="none"></circle><circle r="2.5" cx="0" cy="123.07692307692308" fill="hsla(0, 0%, 71%, 0.62)" stroke="none"></circle><circle r="2.5" cx="61.53846153846154" cy="123.07692307692308" fill="none"></circle><circle r="2.5" cx="123.07692307692308" cy="123.07692307692308" fill="hsla(0, 0%, 71%, 0.62)" stroke="none"></circle><circle r="2.5" cx="184.6153846153846" cy="123.07692307692308" fill="hsla(0, 0%, 71%, 0.62)" stroke="none"></circle><circle r="2.5" cx="246.15384615384616" cy="123.07692307692308" fill="hsla(0, 0%, 71%, 0.62)" stroke="none"></circle><circle r="2.5" cx="307.6923076923077" cy="123.07692307692308" fill="hsla(0, 0%, 71%, 0.62)" stroke="none"></circle><circle r="2.5" cx="369.2307692307692" cy="123.07692307692308" fill="hsla(0, 0%, 71%, 0.62)" stroke="none"></circle><circle r="2.5" cx="430.7692307692308" cy="123.07692307692308" fill="hsla(0, 0%, 71%, 0.62)" stroke="none"></circle><circle r="2.5" cx="492.3076923076923" cy="123.07692307692308" fill="none"></circle><circle r="2.5" cx="553.8461538461538" cy="123.07692307692308" fill="hsla(0, 0%, 71%, 0.62)" stroke="none"></circle><circle r="2.5" cx="615.3846153846154" cy="123.07692307692308" fill="hsla(0, 0%, 71%, 0.62)" stroke="none"></circle><circle r="2.5" cx="676.9230769230769" cy="123.07692307692308" fill="hsla(0, 0%, 71%, 0.62)" stroke="none"></circle><circle r="2.5" cx="738.4615384615385" cy="123.07692307692308" fill="hsla(0, 0%, 71%, 0.62)" stroke="none"></circle><circle r="2.5" cx="800" cy="123.07692307692308" fill="hsla(0, 0%, 71%, 0.62)" stroke="none"></circle><circle r="2.5" cx="0" cy="184.6153846153846" fill="hsla(0, 0%, 71%, 0.62)" stroke="none"></circle><circle r="2.5" cx="61.53846153846154" cy="184.6153846153846" fill="hsla(0, 0%, 71%, 0.62)" stroke="none"></circle><circle r="2.5" cx="123.07692307692308" cy="184.6153846153846" fill="none"></circle><circle r="2.5" cx="184.6153846153846" cy="184.6153846153846" fill="hsla(0, 0%, 71%, 0.62)" stroke="none"></circle><circle r="2.5" cx="246.15384615384616" cy="184.6153846153846" fill="hsla(0, 0%, 71%, 0.62)" stroke="none"></circle><circle r="2.5" cx="307.6923076923077" cy="184.6153846153846" fill="hsla(0, 0%, 71%, 0.62)" stroke="none"></circle><circle r="2.5" cx="369.2307692307692" cy="184.6153846153846" fill="hsla(0, 0%, 71%, 0.62)" stroke="none"></circle><circle r="2.5" cx="430.7692307692308" cy="184.6153846153846" fill="hsla(0, 0%, 71%, 0.62)" stroke="none"></circle><circle r="2.5" cx="492.3076923076923" cy="184.6153846153846" fill="hsla(0, 0%, 71%, 0.62)" stroke="none"></circle><circle r="2.5" cx="553.8461538461538" cy="184.6153846153846" fill="hsla(0, 0%, 71%, 0.62)" stroke="none"></circle><circle r="2.5" cx="615.3846153846154" cy="184.6153846153846" fill="hsla(0, 0%, 71%, 0.62)" stroke="none"></circle><circle r="2.5" cx="676.9230769230769" cy="184.6153846153846" fill="hsla(0, 0%, 71%, 0.62)" stroke="none"></circle><circle r="2.5" cx="738.4615384615385" cy="184.6153846153846" fill="hsla(0, 0%, 71%, 0.62)" stroke="none"></circle><circle r="2.5" cx="800" cy="184.6153846153846" fill="hsla(0, 0%, 71%, 0.62)" stroke="none"></circle><circle r="2.5" cx="0" cy="246.15384615384616" fill="hsla(0, 0%, 71%, 0.62)" stroke="none"></circle><circle r="2.5" cx="61.53846153846154" cy="246.15384615384616" fill="hsla(0, 0%, 71%, 0.62)" stroke="none"></circle><circle r="2.5" cx="123.07692307692308" cy="246.15384615384616" fill="hsla(0, 0%, 71%, 0.62)" stroke="none"></circle><circle r="2.5" cx="184.6153846153846" cy="246.15384615384616" fill="none"></circle><circle r="2.5" cx="246.15384615384616" cy="246.15384615384616" fill="hsla(0, 0%, 71%, 0.62)" stroke="none"></circle><circle r="2.5" cx="307.6923076923077" cy="246.15384615384616" fill="none"></circle><circle r="2.5" cx="369.2307692307692" cy="246.15384615384616" fill="hsla(0, 0%, 71%, 0.62)" stroke="none"></circle><circle r="2.5" cx="430.7692307692308" cy="246.15384615384616" fill="none"></circle><circle r="2.5" cx="492.3076923076923" cy="246.15384615384616" fill="hsla(0, 0%, 71%, 0.62)" stroke="none"></circle><circle r="2.5" cx="553.8461538461538" cy="246.15384615384616" fill="hsla(0, 0%, 71%, 0.62)" stroke="none"></circle><circle r="2.5" cx="615.3846153846154" cy="246.15384615384616" fill="none"></circle><circle r="2.5" cx="676.9230769230769" cy="246.15384615384616" fill="hsla(0, 0%, 71%, 0.62)" stroke="none"></circle><circle r="2.5" cx="738.4615384615385" cy="246.15384615384616" fill="hsla(0, 0%, 71%, 0.62)" stroke="none"></circle><circle r="2.5" cx="800" cy="246.15384615384616" fill="hsla(0, 0%, 71%, 0.62)" stroke="none"></circle><circle r="2.5" cx="0" cy="307.6923076923077" fill="hsla(0, 0%, 71%, 0.62)" stroke="none"></circle><circle r="2.5" cx="61.53846153846154" cy="307.6923076923077" fill="hsla(0, 0%, 71%, 0.62)" stroke="none"></circle><circle r="2.5" cx="123.07692307692308" cy="307.6923076923077" fill="hsla(0, 0%, 71%, 0.62)" stroke="none"></circle><circle r="2.5" cx="184.6153846153846" cy="307.6923076923077" fill="hsla(0, 0%, 71%, 0.62)" stroke="none"></circle><circle r="2.5" cx="246.15384615384616" cy="307.6923076923077" fill="none"></circle><circle r="2.5" cx="307.6923076923077" cy="307.6923076923077" fill="hsla(0, 0%, 71%, 0.62)" stroke="none"></circle><circle r="2.5" cx="369.2307692307692" cy="307.6923076923077" fill="hsla(0, 0%, 71%, 0.62)" stroke="none"></circle><circle r="2.5" cx="430.7692307692308" cy="307.6923076923077" fill="hsla(0, 0%, 71%, 0.62)" stroke="none"></circle><circle r="2.5" cx="492.3076923076923" cy="307.6923076923077" fill="hsla(0, 0%, 71%, 0.62)" stroke="none"></circle><circle r="2.5" cx="553.8461538461538" cy="307.6923076923077" fill="hsla(0, 0%, 71%, 0.62)" stroke="none"></circle><circle r="2.5" cx="615.3846153846154" cy="307.6923076923077" fill="none"></circle><circle r="2.5" cx="676.9230769230769" cy="307.6923076923077" fill="hsla(0, 0%, 71%, 0.62)" stroke="none"></circle><circle r="2.5" cx="738.4615384615385" cy="307.6923076923077" fill="hsla(0, 0%, 71%, 0.62)" stroke="none"></circle><circle r="2.5" cx="800" cy="307.6923076923077" fill="hsla(0, 0%, 71%, 0.62)" stroke="none"></circle><circle r="2.5" cx="0" cy="369.2307692307692" fill="hsla(0, 0%, 71%, 0.62)" stroke="none"></circle><circle r="2.5" cx="61.53846153846154" cy="369.2307692307692" fill="hsla(0, 0%, 71%, 0.62)" stroke="none"></circle><circle r="2.5" cx="123.07692307692308" cy="369.2307692307692" fill="hsla(0, 0%, 71%, 0.62)" stroke="none"></circle><circle r="2.5" cx="184.6153846153846" cy="369.2307692307692" fill="hsla(0, 0%, 71%, 0.62)" stroke="none"></circle><circle r="2.5" cx="246.15384615384616" cy="369.2307692307692" fill="hsla(0, 0%, 71%, 0.62)" stroke="none"></circle><circle r="2.5" cx="307.6923076923077" cy="369.2307692307692" fill="hsla(0, 0%, 71%, 0.62)" stroke="none"></circle><circle r="2.5" cx="369.2307692307692" cy="369.2307692307692" fill="none"></circle><circle r="2.5" cx="430.7692307692308" cy="369.2307692307692" fill="none"></circle><circle r="2.5" cx="492.3076923076923" cy="369.2307692307692" fill="hsla(0, 0%, 71%, 0.62)" stroke="none"></circle><circle r="2.5" cx="553.8461538461538" cy="369.2307692307692" fill="hsla(0, 0%, 71%, 0.62)" stroke="none"></circle><circle r="2.5" cx="615.3846153846154" cy="369.2307692307692" fill="hsla(0, 0%, 71%, 0.62)" stroke="none"></circle><circle r="2.5" cx="676.9230769230769" cy="369.2307692307692" fill="hsla(0, 0%, 71%, 0.62)" stroke="none"></circle><circle r="2.5" cx="738.4615384615385" cy="369.2307692307692" fill="hsla(0, 0%, 71%, 0.62)" stroke="none"></circle><circle r="2.5" cx="800" cy="369.2307692307692" fill="hsla(0, 0%, 71%, 0.62)" stroke="none"></circle><circle r="2.5" cx="0" cy="430.7692307692308" fill="hsla(0, 0%, 71%, 0.62)" stroke="none"></circle><circle r="2.5" cx="61.53846153846154" cy="430.7692307692308" fill="hsla(0, 0%, 71%, 0.62)" stroke="none"></circle><circle r="2.5" cx="123.07692307692308" cy="430.7692307692308" fill="hsla(0, 0%, 71%, 0.62)" stroke="none"></circle><circle r="2.5" cx="184.6153846153846" cy="430.7692307692308" fill="hsla(0, 0%, 71%, 0.62)" stroke="none"></circle><circle r="2.5" cx="246.15384615384616" cy="430.7692307692308" fill="none"></circle><circle r="2.5" cx="307.6923076923077" cy="430.7692307692308" fill="hsla(0, 0%, 71%, 0.62)" stroke="none"></circle><circle r="2.5" cx="369.2307692307692" cy="430.7692307692308" fill="none"></circle><circle r="2.5" cx="430.7692307692308" cy="430.7692307692308" fill="hsla(0, 0%, 71%, 0.62)" stroke="none"></circle><circle r="2.5" cx="492.3076923076923" cy="430.7692307692308" fill="hsla(0, 0%, 71%, 0.62)" stroke="none"></circle><circle r="2.5" cx="553.8461538461538" cy="430.7692307692308" fill="hsla(0, 0%, 71%, 0.62)" stroke="none"></circle><circle r="2.5" cx="615.3846153846154" cy="430.7692307692308" fill="hsla(0, 0%, 71%, 0.62)" stroke="none"></circle><circle r="2.5" cx="676.9230769230769" cy="430.7692307692308" fill="none"></circle><circle r="2.5" cx="738.4615384615385" cy="430.7692307692308" fill="none"></circle><circle r="2.5" cx="800" cy="430.7692307692308" fill="hsla(0, 0%, 71%, 0.62)" stroke="none"></circle><circle r="2.5" cx="0" cy="492.3076923076923" fill="hsla(0, 0%, 71%, 0.62)" stroke="none"></circle><circle r="2.5" cx="61.53846153846154" cy="492.3076923076923" fill="hsla(0, 0%, 71%, 0.62)" stroke="none"></circle><circle r="2.5" cx="123.07692307692308" cy="492.3076923076923" fill="hsla(0, 0%, 71%, 0.62)" stroke="none"></circle><circle r="2.5" cx="184.6153846153846" cy="492.3076923076923" fill="hsla(0, 0%, 71%, 0.62)" stroke="none"></circle><circle r="2.5" cx="246.15384615384616" cy="492.3076923076923" fill="hsla(0, 0%, 71%, 0.62)" stroke="none"></circle><circle r="2.5" cx="307.6923076923077" cy="492.3076923076923" fill="none"></circle><circle r="2.5" cx="369.2307692307692" cy="492.3076923076923" fill="hsla(0, 0%, 71%, 0.62)" stroke="none"></circle><circle r="2.5" cx="430.7692307692308" cy="492.3076923076923" fill="hsla(0, 0%, 71%, 0.62)" stroke="none"></circle><circle r="2.5" cx="492.3076923076923" cy="492.3076923076923" fill="none"></circle><circle r="2.5" cx="553.8461538461538" cy="492.3076923076923" fill="none"></circle><circle r="2.5" cx="615.3846153846154" cy="492.3076923076923" fill="hsla(0, 0%, 71%, 0.62)" stroke="none"></circle><circle r="2.5" cx="676.9230769230769" cy="492.3076923076923" fill="none"></circle><circle r="2.5" cx="738.4615384615385" cy="492.3076923076923" fill="hsla(0, 0%, 71%, 0.62)" stroke="none"></circle><circle r="2.5" cx="800" cy="492.3076923076923" fill="hsla(0, 0%, 71%, 0.62)" stroke="none"></circle><circle r="2.5" cx="0" cy="553.8461538461538" fill="hsla(0, 0%, 71%, 0.62)" stroke="none"></circle><circle r="2.5" cx="61.53846153846154" cy="553.8461538461538" fill="hsla(0, 0%, 71%, 0.62)" stroke="none"></circle><circle r="2.5" cx="123.07692307692308" cy="553.8461538461538" fill="hsla(0, 0%, 71%, 0.62)" stroke="none"></circle><circle r="2.5" cx="184.6153846153846" cy="553.8461538461538" fill="hsla(0, 0%, 71%, 0.62)" stroke="none"></circle><circle r="2.5" cx="246.15384615384616" cy="553.8461538461538" fill="hsla(0, 0%, 71%, 0.62)" stroke="none"></circle><circle r="2.5" cx="307.6923076923077" cy="553.8461538461538" fill="hsla(0, 0%, 71%, 0.62)" stroke="none"></circle><circle r="2.5" cx="369.2307692307692" cy="553.8461538461538" fill="hsla(0, 0%, 71%, 0.62)" stroke="none"></circle><circle r="2.5" cx="430.7692307692308" cy="553.8461538461538" fill="hsla(0, 0%, 71%, 0.62)" stroke="none"></circle><circle r="2.5" cx="492.3076923076923" cy="553.8461538461538" fill="none"></circle><circle r="2.5" cx="553.8461538461538" cy="553.8461538461538" fill="hsla(0, 0%, 71%, 0.62)" stroke="none"></circle><circle r="2.5" cx="615.3846153846154" cy="553.8461538461538" fill="none"></circle><circle r="2.5" cx="676.9230769230769" cy="553.8461538461538" fill="hsla(0, 0%, 71%, 0.62)" stroke="none"></circle><circle r="2.5" cx="738.4615384615385" cy="553.8461538461538" fill="hsla(0, 0%, 71%, 0.62)" stroke="none"></circle><circle r="2.5" cx="800" cy="553.8461538461538" fill="hsla(0, 0%, 71%, 0.62)" stroke="none"></circle><circle r="2.5" cx="0" cy="615.3846153846154" fill="hsla(0, 0%, 71%, 0.62)" stroke="none"></circle><circle r="2.5" cx="61.53846153846154" cy="615.3846153846154" fill="none"></circle><circle r="2.5" cx="123.07692307692308" cy="615.3846153846154" fill="hsla(0, 0%, 71%, 0.62)" stroke="none"></circle><circle r="2.5" cx="184.6153846153846" cy="615.3846153846154" fill="none"></circle><circle r="2.5" cx="246.15384615384616" cy="615.3846153846154" fill="none"></circle><circle r="2.5" cx="307.6923076923077" cy="615.3846153846154" fill="hsla(0, 0%, 71%, 0.62)" stroke="none"></circle><circle r="2.5" cx="369.2307692307692" cy="615.3846153846154" fill="hsla(0, 0%, 71%, 0.62)" stroke="none"></circle><circle r="2.5" cx="430.7692307692308" cy="615.3846153846154" fill="hsla(0, 0%, 71%, 0.62)" stroke="none"></circle><circle r="2.5" cx="492.3076923076923" cy="615.3846153846154" fill="hsla(0, 0%, 71%, 0.62)" stroke="none"></circle><circle r="2.5" cx="553.8461538461538" cy="615.3846153846154" fill="hsla(0, 0%, 71%, 0.62)" stroke="none"></circle><circle r="2.5" cx="615.3846153846154" cy="615.3846153846154" fill="hsla(0, 0%, 71%, 0.62)" stroke="none"></circle><circle r="2.5" cx="676.9230769230769" cy="615.3846153846154" fill="hsla(0, 0%, 71%, 0.62)" stroke="none"></circle><circle r="2.5" cx="738.4615384615385" cy="615.3846153846154" fill="none"></circle><circle r="2.5" cx="800" cy="615.3846153846154" fill="hsla(0, 0%, 71%, 0.62)" stroke="none"></circle><circle r="2.5" cx="0" cy="676.9230769230769" fill="hsla(0, 0%, 71%, 0.62)" stroke="none"></circle><circle r="2.5" cx="61.53846153846154" cy="676.9230769230769" fill="hsla(0, 0%, 71%, 0.62)" stroke="none"></circle><circle r="2.5" cx="123.07692307692308" cy="676.9230769230769" fill="hsla(0, 0%, 71%, 0.62)" stroke="none"></circle><circle r="2.5" cx="184.6153846153846" cy="676.9230769230769" fill="hsla(0, 0%, 71%, 0.62)" stroke="none"></circle><circle r="2.5" cx="246.15384615384616" cy="676.9230769230769" fill="hsla(0, 0%, 71%, 0.62)" stroke="none"></circle><circle r="2.5" cx="307.6923076923077" cy="676.9230769230769" fill="hsla(0, 0%, 71%, 0.62)" stroke="none"></circle><circle r="2.5" cx="369.2307692307692" cy="676.9230769230769" fill="hsla(0, 0%, 71%, 0.62)" stroke="none"></circle><circle r="2.5" cx="430.7692307692308" cy="676.9230769230769" fill="hsla(0, 0%, 71%, 0.62)" stroke="none"></circle><circle r="2.5" cx="492.3076923076923" cy="676.9230769230769" fill="hsla(0, 0%, 71%, 0.62)" stroke="none"></circle><circle r="2.5" cx="553.8461538461538" cy="676.9230769230769" fill="hsla(0, 0%, 71%, 0.62)" stroke="none"></circle><circle r="2.5" cx="615.3846153846154" cy="676.9230769230769" fill="hsla(0, 0%, 71%, 0.62)" stroke="none"></circle><circle r="2.5" cx="676.9230769230769" cy="676.9230769230769" fill="hsla(0, 0%, 71%, 0.62)" stroke="none"></circle><circle r="2.5" cx="738.4615384615385" cy="676.9230769230769" fill="hsla(0, 0%, 71%, 0.62)" stroke="none"></circle><circle r="2.5" cx="800" cy="676.9230769230769" fill="hsla(0, 0%, 71%, 0.62)" stroke="none"></circle><circle r="2.5" cx="0" cy="738.4615384615385" fill="hsla(0, 0%, 71%, 0.62)" stroke="none"></circle><circle r="2.5" cx="61.53846153846154" cy="738.4615384615385" fill="hsla(0, 0%, 71%, 0.62)" stroke="none"></circle><circle r="2.5" cx="123.07692307692308" cy="738.4615384615385" fill="hsla(0, 0%, 71%, 0.62)" stroke="none"></circle><circle r="2.5" cx="184.6153846153846" cy="738.4615384615385" fill="none"></circle><circle r="2.5" cx="246.15384615384616" cy="738.4615384615385" fill="none"></circle><circle r="2.5" cx="307.6923076923077" cy="738.4615384615385" fill="hsla(0, 0%, 71%, 0.62)" stroke="none"></circle><circle r="2.5" cx="369.2307692307692" cy="738.4615384615385" fill="hsla(0, 0%, 71%, 0.62)" stroke="none"></circle><circle r="2.5" cx="430.7692307692308" cy="738.4615384615385" fill="hsla(0, 0%, 71%, 0.62)" stroke="none"></circle><circle r="2.5" cx="492.3076923076923" cy="738.4615384615385" fill="hsla(0, 0%, 71%, 0.62)" stroke="none"></circle><circle r="2.5" cx="553.8461538461538" cy="738.4615384615385" fill="none"></circle><circle r="2.5" cx="615.3846153846154" cy="738.4615384615385" fill="none"></circle><circle r="2.5" cx="676.9230769230769" cy="738.4615384615385" fill="hsla(0, 0%, 71%, 0.62)" stroke="none"></circle><circle r="2.5" cx="738.4615384615385" cy="738.4615384615385" fill="hsla(0, 0%, 71%, 0.62)" stroke="none"></circle><circle r="2.5" cx="800" cy="738.4615384615385" fill="hsla(0, 0%, 71%, 0.62)" stroke="none"></circle><circle r="2.5" cx="0" cy="800" fill="hsla(0, 0%, 71%, 0.62)" stroke="none"></circle><circle r="2.5" cx="61.53846153846154" cy="800" fill="hsla(0, 0%, 71%, 0.62)" stroke="none"></circle><circle r="2.5" cx="123.07692307692308" cy="800" fill="hsla(0, 0%, 71%, 0.62)" stroke="none"></circle><circle r="2.5" cx="184.6153846153846" cy="800" fill="hsla(0, 0%, 71%, 0.62)" stroke="none"></circle><circle r="2.5" cx="246.15384615384616" cy="800" fill="hsla(0, 0%, 71%, 0.62)" stroke="none"></circle><circle r="2.5" cx="307.6923076923077" cy="800" fill="hsla(0, 0%, 71%, 0.62)" stroke="none"></circle><circle r="2.5" cx="369.2307692307692" cy="800" fill="hsla(0, 0%, 71%, 0.62)" stroke="none"></circle><circle r="2.5" cx="430.7692307692308" cy="800" fill="hsla(0, 0%, 71%, 0.62)" stroke="none"></circle><circle r="2.5" cx="492.3076923076923" cy="800" fill="hsla(0, 0%, 71%, 0.62)" stroke="none"></circle><circle r="2.5" cx="553.8461538461538" cy="800" fill="hsla(0, 0%, 71%, 0.62)" stroke="none"></circle><circle r="2.5" cx="615.3846153846154" cy="800" fill="hsla(0, 0%, 71%, 0.62)" stroke="none"></circle><circle r="2.5" cx="676.9230769230769" cy="800" fill="hsla(0, 0%, 71%, 0.62)" stroke="none"></circle><circle r="2.5" cx="738.4615384615385" cy="800" fill="hsla(0, 0%, 71%, 0.62)" stroke="none"></circle><circle r="2.5" cx="800" cy="800" fill="hsla(0, 0%, 71%, 0.62)" stroke="none"></circle></g></svg>