<svg xmlns="http://www.w3.org/2000/svg" version="1.1" xmlns:xlink="http://www.w3.org/1999/xlink" xmlns:svgjs="http://svgjs.dev/svgjs" viewBox="0 0 800 800"><defs><radialGradient id="ccclaymoji-grad-dark" r="93%" cx="20%" cy="20%">
      <stop offset="70%" stop-color="hsl(166, 100%, 73%)" stop-opacity="0"></stop>
      <stop offset="97%" stop-color="#38cbad" stop-opacity="1"></stop>
    </radialGradient><radialGradient id="ccclaymoji-grad-light" r="65%" cx="28%" cy="20%">
    <stop offset="0%" stop-color="#acffff" stop-opacity="0.75"></stop>
    <stop offset="100%" stop-color="hsl(166, 100%, 73%)" stop-opacity="0"></stop>
  </radialGradient><filter id="ccclaymoji-blur" x="-100%" y="-100%" width="400%" height="400%" filterUnits="objectBoundingBox" primitiveUnits="userSpaceOnUse" color-interpolation-filters="sRGB">
	<feGaussianBlur stdDeviation="27" x="0%" y="0%" width="100%" height="100%" in="SourceGraphic" edgeMode="none" result="blur"></feGaussianBlur></filter><filter id="inner-blur" x="-100%" y="-100%" width="400%" height="400%" filterUnits="objectBoundingBox" primitiveUnits="userSpaceOnUse" color-interpolation-filters="sRGB">
	<feGaussianBlur stdDeviation="2" x="0%" y="0%" width="100%" height="100%" in="SourceGraphic" edgeMode="none" result="blur"></feGaussianBlur></filter><filter id="eye-shadow" x="-100%" y="-100%" width="400%" height="400%" filterUnits="objectBoundingBox" primitiveUnits="userSpaceOnUse" color-interpolation-filters="sRGB">
	<feDropShadow stdDeviation="10" dx="10" dy="10" flood-color="#000000" flood-opacity="0.2" x="0%" y="0%" width="100%" height="100%" result="dropShadow"></feDropShadow>
</filter><linearGradient id="eye-light" x1="50%" y1="0%" x2="50%" y2="100%">
      <stop offset="0%" stop-color="#555555" stop-opacity="1"></stop>
      <stop offset="100%" stop-color="black" stop-opacity="0"></stop>
    </linearGradient><linearGradient id="mouth-light" x1="50%" y1="0%" x2="50%" y2="100%">
    <stop offset="0%" stop-color="#ff9667" stop-opacity="1"></stop>
    <stop offset="100%" stop-color="hsl(3, 100%, 51%)" stop-opacity="0"></stop>
  </linearGradient><filter id="mouth-shadow" x="-100%" y="-100%" width="400%" height="400%" filterUnits="objectBoundingBox" primitiveUnits="userSpaceOnUse" color-interpolation-filters="sRGB">
	<feDropShadow stdDeviation="10" dx="10" dy="10" flood-color="#c20000" flood-opacity="0.2" x="0%" y="0%" width="100%" height="100%" result="dropShadow"></feDropShadow>
</filter></defs><g stroke-linecap="round"><path d="M600.5 450.0000021386983C600.5 572.6724954001538 522.6724932614554 672.1172528125528 400 672.1172528125528C277.3280471698113 672.1172528125528 199.5 572.6724954001538 199.5 450.0000021386983C199.5 327.32804930850955 277.3280471698113 227.88275146484375 400 227.88275146484375C522.6724932614554 227.88275146484375 600.5 327.32804930850955 600.5 450.0000021386983Z " fill="#38cbad" opacity="0.26" filter="url(#ccclaymoji-blur)"></path><path d="M600.5 399.99999808721736C600.5 529.6623770045962 529.6623789173789 589.075496662716 400 589.075496662716C270.33819230769234 589.075496662716 199.5 529.6623770045962 199.5 399.99999808721736C199.5 270.33819039490965 270.33819230769234 210.92449951171875 400 210.92449951171875C529.6623789173789 210.92449951171875 600.5 270.33819039490965 600.5 399.99999808721736Z " fill="hsl(166, 100%, 73%)"></path><path d="M600.5 399.99999808721736C600.5 529.6623770045962 529.6623789173789 589.075496662716 400 589.075496662716C270.33819230769234 589.075496662716 199.5 529.6623770045962 199.5 399.99999808721736C199.5 270.33819039490965 270.33819230769234 210.92449951171875 400 210.92449951171875C529.6623789173789 210.92449951171875 600.5 270.33819039490965 600.5 399.99999808721736Z " fill="url(#ccclaymoji-grad-dark)"></path><path d="M600.5 399.99999808721736C600.5 529.6623770045962 529.6623789173789 589.075496662716 400 589.075496662716C270.33819230769234 589.075496662716 199.5 529.6623770045962 199.5 399.99999808721736C199.5 270.33819039490965 270.33819230769234 210.92449951171875 400 210.92449951171875C529.6623789173789 210.92449951171875 600.5 270.33819039490965 600.5 399.99999808721736Z " fill="url(#ccclaymoji-grad-light)"></path><path d="M325 362.5Q375 412.5 375 362.5 " stroke-width="19" stroke="black" fill="none" filter="url(#eye-shadow)"></path><path d="M325 362.5Q375 412.5 375 362.5 " stroke-width="6.333333333333333" stroke="url(#eye-light)" fill="none" filter="url(#inner-blur)"></path><path d="M425 362.5Q475 412.5 475 362.5 " stroke-width="19" stroke="black" fill="none" filter="url(#eye-shadow)"></path><path d="M425 362.5Q475 412.5 475 362.5 " stroke-width="6.333333333333333" stroke="url(#eye-light)" fill="none" filter="url(#inner-blur)"></path><path d="M347.5 500Q358.5 600 452.5 500 " stroke-width="19" stroke="hsl(3, 100%, 51%)" fill="none" filter="url(#mouth-shadow)"></path><path d="M347.5 500Q358.5 600 452.5 500 " stroke-width="6.333333333333333" stroke="url(#mouth-light)" fill="none" filter="url(#inner-blur)"></path></g></svg>