<svg xmlns="http://www.w3.org/2000/svg" version="1.1" xmlns:xlink="http://www.w3.org/1999/xlink" xmlns:svgjs="http://svgjs.dev/svgjs" viewBox="0 0 800 800"><defs><radialGradient id="ccclaymoji-grad-dark" r="93%" cx="20%" cy="20%">
      <stop offset="70%" stop-color="hsl(71, 85%, 57%)" stop-opacity="0"></stop>
      <stop offset="97%" stop-color="#97bc00" stop-opacity="1"></stop>
    </radialGradient><radialGradient id="ccclaymoji-grad-light" r="65%" cx="28%" cy="20%">
    <stop offset="0%" stop-color="#ffff6c" stop-opacity="0.75"></stop>
    <stop offset="100%" stop-color="hsl(71, 85%, 57%)" stop-opacity="0"></stop>
  </radialGradient><filter id="ccclaymoji-blur" x="-100%" y="-100%" width="400%" height="400%" filterUnits="objectBoundingBox" primitiveUnits="userSpaceOnUse" color-interpolation-filters="sRGB">
	<feGaussianBlur stdDeviation="27" x="0%" y="0%" width="100%" height="100%" in="SourceGraphic" edgeMode="none" result="blur"></feGaussianBlur></filter><filter id="inner-blur" x="-100%" y="-100%" width="400%" height="400%" filterUnits="objectBoundingBox" primitiveUnits="userSpaceOnUse" color-interpolation-filters="sRGB">
	<feGaussianBlur stdDeviation="2" x="0%" y="0%" width="100%" height="100%" in="SourceGraphic" edgeMode="none" result="blur"></feGaussianBlur></filter><filter id="eye-shadow" x="-100%" y="-100%" width="400%" height="400%" filterUnits="objectBoundingBox" primitiveUnits="userSpaceOnUse" color-interpolation-filters="sRGB">
	<feDropShadow stdDeviation="10" dx="10" dy="10" flood-color="#c20000" flood-opacity="0.2" x="0%" y="0%" width="100%" height="100%" result="dropShadow"></feDropShadow>
</filter><linearGradient id="eye-light" x1="50%" y1="0%" x2="50%" y2="100%">
      <stop offset="0%" stop-color="#ff9264" stop-opacity="1"></stop>
      <stop offset="100%" stop-color="hsla(0, 100%, 50%, 1.00)" stop-opacity="0"></stop>
    </linearGradient><linearGradient id="mouth-light" x1="50%" y1="0%" x2="50%" y2="100%">
    <stop offset="0%" stop-color="#9569ee" stop-opacity="1"></stop>
    <stop offset="100%" stop-color="hsla(253, 80%, 30%, 1.00)" stop-opacity="0"></stop>
  </linearGradient><filter id="mouth-shadow" x="-100%" y="-100%" width="400%" height="400%" filterUnits="objectBoundingBox" primitiveUnits="userSpaceOnUse" color-interpolation-filters="sRGB">
	<feDropShadow stdDeviation="10" dx="10" dy="10" flood-color="#00005c" flood-opacity="0.2" x="0%" y="0%" width="100%" height="100%" result="dropShadow"></feDropShadow>
</filter></defs><g stroke-linecap="round"><path d="M600.5 450.0000019122268C600.5 566.3976873342217 516.3976854219949 660.7557563879302 400 660.7557563879302C283.6028273657289 660.7557563879302 199.5 566.3976873342217 199.5 450.0000019122268C199.5 333.60282927795566 283.6028273657289 239.24424743652344 400 239.24424743652344C516.3976854219949 239.24424743652344 600.5 333.60282927795566 600.5 450.0000019122268Z " fill="#97bc00" opacity="0.26" filter="url(#ccclaymoji-blur)"></path><circle r="200.5" cx="400" cy="400" fill="hsl(71, 85%, 57%)"></circle><circle r="200.5" cx="400" cy="400" fill="url(#ccclaymoji-grad-dark)"></circle><circle r="200.5" cx="400" cy="400" fill="url(#ccclaymoji-grad-light)"></circle><path d="M336 369Q352 393 364 369 " stroke-width="19" stroke="hsla(0, 100%, 50%, 1.00)" fill="none" filter="url(#eye-shadow)"></path><path d="M336 369Q352 393 364 369 " stroke-width="6.333333333333333" stroke="url(#eye-light)" fill="none" filter="url(#inner-blur)"></path><path d="M438 362.5Q451 412.5 462 362.5 " stroke-width="19" stroke="hsla(0, 100%, 50%, 1.00)" fill="none" filter="url(#eye-shadow)"></path><path d="M438 362.5Q451 412.5 462 362.5 " stroke-width="6.333333333333333" stroke="url(#eye-light)" fill="none" filter="url(#inner-blur)"></path><path d="M359 488.25Q394 531.25 449 488.25 " stroke-width="19" stroke="hsla(253, 80%, 30%, 1.00)" fill="none" filter="url(#mouth-shadow)" transform="rotate(23, 400, 400)"></path><path d="M359 488.25Q394 531.25 449 488.25 " stroke-width="6.333333333333333" stroke="url(#mouth-light)" fill="none" filter="url(#inner-blur)" transform="rotate(23, 400, 400)"></path></g></svg>